<svg width="1440" height="306" viewBox="0 0 1440 306" fill="none" xmlns="http://www.w3.org/2000/svg">
<path d="M0 305C10 305 31.5 291.5 32 268C32.5 244.5 32 53.5 32 39.5C32 25.5 41 1 67 1C93 1 420 1 420 1" stroke="#BCDFF2" stroke-opacity="0.2"/>
<path d="M908 305H939.5C939.5 305 961.5 305 971.5 305C981.5 305 1006.5 291.5 1007 268C1007.5 244.5 1007 53.5 1007 39.5C1007 25.5 1016 1 1042 1C1068 1 1440 1 1440 1" stroke="#BCDFF2" stroke-opacity="0.2"/>
<path d="M420 1H453.132C453.132 1 476.273 1 486.791 1C497.309 1 523.605 15.2105 524.131 39.9474C524.656 64.6842 524.131 249.737 524.131 264.474C524.131 279.211 533.597 305 560.944 305C588.292 305 908 305 908 305" stroke="#BCDFF2" stroke-opacity="0.2"/>
</svg>
