<svg width="118" height="72" viewBox="0 0 118 72" fill="none" xmlns="http://www.w3.org/2000/svg">
<g clip-path="url(#clip0_113_154)">
<path d="M92.5753 0.085247C83.2691 0.510923 71.1772 3.29606 59.8516 7.62579C58.8784 8.00282 58.0755 8.31903 58.0512 8.33119C58.0269 8.35552 58.0634 8.47714 58.1364 8.61092C58.258 8.842 58.4162 8.79336 61.944 7.61363C77.357 2.42038 91.2858 0.632545 100.908 2.62714C106.066 3.70957 109.631 5.72849 111.613 8.69606C113.609 11.7001 113.645 15.9569 111.723 20.3231C111.492 20.8339 111.309 21.2961 111.309 21.3325C111.309 21.369 112.429 21.4055 113.791 21.4055H116.285L116.638 20.4569C118.535 15.5434 118.414 11.3352 116.273 7.6866C115.713 6.72579 113.633 4.67038 112.465 3.90417C108.037 1.02173 101.127 -0.303942 92.5753 0.085247Z" fill="#1E1E7A"/>
<path d="M43.3317 9.85135C43.2587 10.0216 42.7478 11.5419 42.2004 13.2203L41.1907 16.2973H37.6263C35.6678 16.2973 34.062 16.3338 34.062 16.3824C34.062 16.4432 35.2542 17.3432 36.714 18.4014C38.1616 19.4473 39.4511 20.3959 39.5727 20.4811C39.7795 20.6392 39.743 20.8338 38.6969 24.0324C38.0886 25.8932 37.6142 27.4257 37.6263 27.4378C37.6628 27.4743 42.7356 23.8257 43.0762 23.5216C43.3804 23.2541 43.5507 23.3149 44.463 23.9959C46.6284 25.6135 49.2682 27.4743 49.2682 27.3892C49.2682 27.2554 47.3705 21.3568 47.188 20.9311C47.1272 20.773 47.0907 20.627 47.1028 20.6149C48.0395 19.9338 51.9323 17.1 52.3703 16.7959L52.9663 16.3581L49.329 16.2973L45.6917 16.2365L44.6455 13.0743C43.356 9.15811 43.4898 9.48649 43.3317 9.85135ZM46.6406 17.7811L48.5748 17.8176L47.042 18.9486C45.6065 20.0068 45.4971 20.1041 45.5822 20.4081C45.6187 20.5905 45.8863 21.4297 46.1783 22.2811C46.4581 23.1446 46.6771 23.8378 46.6527 23.8378C46.6162 23.8378 45.1199 22.7554 43.7696 21.7703L43.4534 21.527L42.9181 21.9284C42.6383 22.1473 41.8962 22.6946 41.2758 23.1324L40.1688 23.9473L40.7649 22.1716C41.0934 21.1865 41.361 20.2986 41.361 20.1892C41.361 20.0919 40.6676 19.5081 39.816 18.9122L38.2832 17.8176L40.2418 17.7811L42.2125 17.7568L42.7721 15.9568C43.0884 14.9716 43.3682 14.1081 43.4169 14.0473C43.4534 13.9743 43.7575 14.7892 44.0859 15.8351L44.6942 17.7568L46.6406 17.7811Z" fill="#1E1E7A"/>
<path d="M13.7586 19.5446C11.946 23.023 2.33573 40.0865 2.0681 40.2811C1.88562 40.4149 1.44768 40.5365 0.948921 40.5852L0.146034 40.6581L0.0973747 41.1933C0.0730448 41.4973 0.0852097 41.7527 0.121705 41.777C0.158199 41.7892 0.985416 41.7649 1.97078 41.7041C2.9683 41.6554 4.6349 41.6554 5.68109 41.7041C6.73944 41.7527 7.63964 41.7649 7.67614 41.7284C7.7248 41.6919 7.79779 41.4365 7.84645 41.1568L7.91944 40.6703L6.70294 40.5365C5.25531 40.3906 5.06067 40.2811 5.14583 39.5757C5.20665 38.9919 6.14335 36.9365 7.445 34.4798L8.35738 32.777H11.9339H15.4982L15.8267 35.3189C16.3376 39.2595 16.3619 39.7946 16.0943 40.123C15.851 40.427 15.1576 40.6095 14.2087 40.6216H13.6248V41.2419V41.85L14.1844 41.7649C14.9629 41.6554 21.9091 41.6433 22.785 41.7649L23.4906 41.8622L23.4662 41.2541L23.4419 40.646L22.5174 40.5608C22.0186 40.5122 21.4712 40.427 21.313 40.3662C20.9481 40.2325 20.7413 39.7095 20.5102 38.3595C20.2669 36.9243 17.9434 21.3325 17.7366 19.7027L17.5784 18.4257L15.9726 18.3892L14.3669 18.3527L13.7586 19.5446ZM14.6102 26.6473C14.9386 28.873 15.2062 30.7703 15.2062 30.8554C15.2062 30.977 14.598 31.0135 12.2137 31.0135C10.5714 31.0135 9.24542 30.9649 9.26975 30.9162C9.40356 30.5635 13.9289 22.5243 13.9654 22.5608C13.9897 22.5852 14.2817 24.4216 14.6102 26.6473Z" fill="#1E1E7A"/>
<path d="M109.618 26.0271C106.626 26.4406 103.658 28.5203 102.417 31.0744C101.687 32.5947 101.431 33.7136 101.419 35.5744C101.395 37.3257 101.529 38.0919 102.064 39.1622C102.903 40.8163 104.46 41.7406 106.735 41.9109C108.572 42.0568 110.081 41.6676 112.076 40.5244C113.134 39.9163 113.28 39.7947 113.402 39.3811C113.633 38.6149 113.426 38.5906 112.331 39.2352C110.75 40.1717 110.251 40.3176 108.572 40.3176C107.38 40.3176 107.027 40.269 106.687 40.0865C105.008 39.1987 104.46 38.0433 104.46 35.4528C104.473 32.0595 105.567 29.1041 107.161 28.1311C108.584 27.2676 110.786 27.2555 112.404 28.0825C113.158 28.4717 113.219 28.5933 113.244 29.9555L113.256 30.7825L113.645 30.746L114.022 30.7095L114.241 29.4933C114.363 28.8244 114.533 27.9852 114.63 27.6325L114.813 26.9879L114.253 26.7082C113.085 26.1244 111.09 25.8325 109.618 26.0271Z" fill="#1E1E7A"/>
<path d="M30.2787 29.6514C29.5974 29.8825 28.6851 30.4663 27.3469 31.5244L26.2886 32.3758L26.471 32.7285L26.6535 33.0812L27.0428 32.7893C27.6146 32.3636 28.4539 31.9623 28.5999 32.0596C28.9649 32.2785 27.651 38.6514 26.763 40.9744C26.3981 41.9109 26.5319 42.0204 27.7362 41.7771C28.235 41.6798 28.8432 41.5704 29.0743 41.5339L29.5001 41.4731L30.0475 38.6514L30.595 35.8298L31.0207 35.7204C31.4343 35.6109 34.2445 35.6474 34.3539 35.769C34.3783 35.7933 34.2445 36.3893 34.0498 37.0947C33.2591 39.8677 33.1374 41.0717 33.5875 41.6433C34.1958 42.4096 35.3028 41.9474 38.4779 39.6001C38.6482 39.4663 38.6603 39.3812 38.5508 39.065C38.4779 38.846 38.3927 38.6758 38.3562 38.6758C38.3197 38.6758 38.0886 38.8339 37.8453 39.0285C37.2614 39.4785 36.6409 39.7947 36.495 39.7096C36.3247 39.6001 36.349 38.846 36.5558 37.7393C36.7383 36.7906 38.2467 31.3298 38.6117 30.3204C38.8793 29.5541 38.7455 29.4933 37.1275 29.7609L35.7894 29.9798L35.7042 30.6244C35.6191 31.3055 34.8405 34.5406 34.731 34.6379C34.6459 34.7231 31.0329 34.7109 30.9477 34.6258C30.9113 34.5893 31.0207 33.8231 31.191 32.9352C31.6168 30.7339 31.6776 30.1258 31.5195 29.8339C31.3492 29.4933 30.9113 29.4325 30.2787 29.6514Z" fill="#1E1E7A"/>
<path d="M44.7672 29.5419C44.1224 29.7365 43.4047 30.1987 42.0179 31.2689C41.215 31.8892 40.5581 32.4 40.5338 32.4243C40.5094 32.4365 40.5824 32.6189 40.6797 32.8257L40.8744 33.2027L41.6286 32.5946C42.0422 32.2541 42.5045 31.9865 42.6626 31.9865C42.9181 31.9865 42.9424 32.0351 42.9424 32.6797C42.9424 33.5919 42.2369 37.0338 41.5435 39.4784C40.9474 41.5703 40.9474 41.5824 41.1055 41.8135C41.1785 41.9351 41.3123 41.9473 41.7381 41.8379C42.0301 41.7649 42.6261 41.6676 43.0519 41.6189L43.8426 41.5338L44.1224 40.0865C44.5847 37.727 45.2416 36.073 46.4459 34.2487C47.5043 32.6554 48.8181 31.4757 49.3412 31.6703C49.4628 31.7189 49.5115 31.9379 49.5115 32.3757C49.5115 33.373 48.7451 36.9243 47.9909 39.3933C47.1758 42.0811 47.1637 42.0446 48.5505 41.8379C49.0492 41.7649 49.621 41.6797 49.8156 41.6433C50.1684 41.5946 50.1927 41.5581 50.3266 40.7068C50.6307 38.8703 51.4579 36.5108 52.3338 35.0635C52.8569 34.1757 54.268 32.6676 54.9249 32.2784C55.4358 31.9865 55.7643 31.9865 55.8738 32.2784C55.9711 32.5216 55.6791 33.9446 54.9249 37.0338C54.5356 38.5662 54.2072 40.1716 54.1707 40.5851C54.1098 41.2662 54.1342 41.3514 54.414 41.6433C54.6329 41.8622 54.8641 41.9595 55.1439 41.9595C55.7035 41.9595 57.0294 41.2784 58.2094 40.3662C58.7447 39.9649 59.2921 39.5514 59.4138 39.4662C59.6327 39.3081 59.6327 39.2838 59.4381 38.9919L59.2435 38.6757L58.3311 39.296C57.4066 39.9406 57.1754 39.9649 57.1754 39.4541C57.1754 38.9676 57.7715 36.0487 58.2703 34.1149C58.9272 31.5365 59.0367 30.8676 58.8785 30.296C58.7204 29.6879 58.4892 29.5054 57.9053 29.5297C56.2387 29.6027 53.7692 31.5243 52.0905 34.0419C51.6769 34.6743 51.3362 35.1365 51.3362 35.0757C51.3362 35.0149 51.5309 34.2487 51.762 33.3851C52.2608 31.5487 52.4068 30.3324 52.2 29.9311C51.4457 28.5203 48.0152 30.7581 45.7525 34.1392C45.2781 34.8446 44.8888 35.4041 44.8888 35.3676C44.8888 35.3433 45.0835 34.4676 45.3146 33.4338C45.8377 31.196 45.9593 30.0649 45.716 29.7851C45.5092 29.5176 45.1443 29.4324 44.7672 29.5419Z" fill="#1E1E7A"/>
<path d="M68.136 29.5784C67.4304 29.7 66.7978 30.0406 65.703 30.8676C63.5863 32.473 63.124 33.0933 62.4793 35.1122C61.4696 38.3473 61.4088 41.1568 62.3455 41.7649C63.5985 42.5919 66.2383 40.6095 68.3063 37.3135C68.6348 36.7906 68.9145 36.3892 68.9389 36.4135C68.9754 36.4379 68.8172 37.2527 68.6104 38.2135C68.1482 40.2811 68.0995 41.1568 68.4036 41.6311C68.9145 42.4217 70.1919 41.8744 72.9533 39.6852C73.2088 39.4906 73.2209 39.4298 73.0871 39.0163L72.9533 38.5784L72.3329 39.0406C71.1772 39.8919 70.8001 39.9527 70.8001 39.2838C70.8001 38.8217 72.2356 32.3271 72.6735 30.8433C72.9168 29.9919 72.9533 29.7244 72.8317 29.6514C72.6005 29.5054 72.4302 29.5298 71.9558 29.8095L71.5178 30.0649L70.7028 29.8217C69.7539 29.5176 68.8902 29.4325 68.136 29.5784ZM69.2308 31.2203C69.7904 31.4392 69.8148 31.5487 69.462 32.9108C68.9632 34.869 67.5156 37.35 65.9828 38.8825C65.0218 39.8676 64.669 39.9892 64.4622 39.4298C64.1337 38.5784 65.2407 33.7257 66.1531 32.0473C66.7492 30.9527 67.8319 30.6608 69.2308 31.2203Z" fill="#1E1E7A"/>
<path d="M85.3857 29.6028C83.8894 29.992 81.8701 31.646 80.5197 33.5798C80.24 33.969 79.9967 34.2852 79.9723 34.2731C79.9602 34.2487 80.1426 33.3487 80.3859 32.2785C80.763 30.5393 80.7995 30.2717 80.6536 29.9312C80.5197 29.5906 80.4468 29.5542 79.9845 29.5542C79.2911 29.5542 78.2084 30.1136 76.6756 31.2812C76.0309 31.7677 75.4591 32.2055 75.3983 32.242C75.2645 32.3271 75.4956 32.9596 75.6659 32.9596C75.7389 32.9596 76.0065 32.8015 76.2742 32.6069C76.5296 32.4244 76.9189 32.1933 77.1379 32.1082C77.8313 31.8163 77.8556 32.169 77.296 35.2704C76.8703 37.569 75.7754 42.5069 74.9725 45.6447C74.5224 47.4447 74.34 48.3447 74.4251 48.4298C74.5103 48.515 74.8022 48.4906 75.3253 48.3569C75.7389 48.2596 76.3715 48.1379 76.7121 48.0893L77.3447 48.0163L77.4298 47.2015C77.5393 46.192 77.88 44.5623 78.476 42.3123L78.5855 41.8744L79.656 41.9352C80.5927 41.9839 80.8117 41.9596 81.4808 41.6798C83.5245 40.865 85.5439 39.2109 86.2251 37.8123C87.0888 36.0487 87.6849 33.3852 87.5511 31.8771C87.3808 29.9312 86.736 29.2501 85.3857 29.6028ZM84.5585 31.9501C85.0329 33.1906 84.0111 37.7271 82.8433 39.5636C82.308 40.415 81.8579 40.646 80.8969 40.5852C80.4589 40.5609 79.8263 40.415 79.4857 40.269L78.8531 39.9893L79.0235 39.2474C79.2911 38.0798 79.7898 36.4987 80.167 35.6717C81.0428 33.7379 82.6486 31.9501 83.7921 31.6339C84.2301 31.5123 84.4247 31.5852 84.5585 31.9501Z" fill="#1E1E7A"/>
<path d="M96.2369 29.5663C94.9961 29.7366 92.5388 31.196 91.6264 32.2906C90.5194 33.6406 89.4975 37.3501 89.7043 39.296C89.8868 41.1204 91.1398 42.0933 93.1227 41.9352C94.1202 41.8501 95.5313 41.242 97.1493 40.1717C98.3049 39.4177 98.4144 39.3204 98.3414 39.0406C98.232 38.5542 98.1346 38.542 97.5629 38.919C96.1517 39.8555 94.0594 40.3785 93.3051 39.9893C92.7212 39.6731 92.4536 39.0893 92.4658 38.1406C92.4779 37.0096 92.5752 36.6933 92.9402 36.5839C93.1105 36.5352 93.7674 36.3528 94.4 36.1825C97.3074 35.392 99.0105 33.9569 99.2295 32.1082C99.4484 30.2596 98.2928 29.2744 96.2369 29.5663ZM96.3342 30.9528C96.7478 31.1596 96.833 31.342 96.833 32.0596C96.833 32.7406 96.2977 33.8352 95.6651 34.4555C95.2394 34.869 93.9742 35.5014 93.1348 35.7082C92.7942 35.7933 92.7942 35.7812 92.8794 35.3798C93.4025 32.9717 94.1689 31.4028 95.0326 30.9771C95.5313 30.7217 95.8963 30.7217 96.3342 30.9528Z" fill="#1E1E7A"/>
<path d="M85.3372 46.0582C82.077 48.1257 77.9288 50.4365 73.9022 52.4433C59.3042 59.7406 43.7331 64.5325 30.4125 65.8217C27.8457 66.0649 20.4129 66.0284 18.4908 65.7609C14.9752 65.2622 12.7247 64.6176 10.2795 63.4257C7.61537 62.1122 5.87579 60.4947 4.80527 58.3055C3.60094 55.8487 3.36981 53.173 4.08754 49.8284C4.23352 49.1474 3.86857 49.5122 3.41847 50.5095C2.78589 51.8717 2.2263 53.5257 1.92218 54.9487C1.5329 56.6757 1.54506 59.3514 1.93434 60.8717C3.28465 66.1257 7.68836 69.5676 15.0238 71.0879C18.0894 71.7203 19.3059 71.8176 24.2084 71.8176C29.0743 71.8176 30.4733 71.7203 34.8527 71.0757C53.2583 68.3514 74.7659 59.4487 91.8455 47.4811C93.2201 46.5203 94.5096 45.596 94.7042 45.4379L95.0692 45.1338H90.9331L86.797 45.146L85.3372 46.0582Z" fill="#1E1E7A"/>
</g>
<defs>
<clipPath id="clip0_113_154">
<rect width="118" height="72" fill="white"/>
</clipPath>
</defs>
</svg>
