<svg width="72" height="15" viewBox="0 0 72 15" fill="none" xmlns="http://www.w3.org/2000/svg">
<g clip-path="url(#clip0_66_126)">
<path fill-rule="evenodd" clip-rule="evenodd" d="M47.4525 8.21084C47.4952 8.49084 47.5165 8.70622 47.5805 8.92161C48.0497 10.9247 49.6066 12.2601 51.6326 12.4324C53.4241 12.5831 54.8317 11.8939 55.8767 10.4078C56.3886 9.69699 57.2203 9.56776 57.8814 10.1493C58.2653 10.4724 58.308 10.9031 58.0094 11.3124C57.8388 11.5278 57.6895 11.7431 57.5189 11.9801C56.8364 12.9278 55.9407 13.5739 54.8317 13.9616C53.0402 14.5862 51.2487 14.6724 49.4786 14.0047C47.09 13.1216 45.6824 11.3555 45.2772 8.83546C45.0426 7.28469 45.1919 5.73392 45.8956 4.33392C46.9193 2.33084 48.5189 1.10315 50.7369 0.736995C52.2085 0.500072 53.6587 0.650841 55.0236 1.31853C56.9644 2.24469 58.1374 3.81699 58.5852 5.90623C58.7132 6.48776 58.7559 7.0693 58.7985 7.65084C58.8412 8.01699 58.6705 8.16776 58.308 8.1893C58.1374 8.1893 57.9881 8.1893 57.8175 8.1893C54.5118 8.1893 51.2061 8.1893 47.9217 8.1893C47.7724 8.21084 47.6658 8.21084 47.4525 8.21084ZM56.4739 6.01392C56.1966 4.14007 53.9573 2.50315 51.8885 2.63238C49.7345 2.76161 47.6018 4.42007 47.5165 6.01392C50.481 6.01392 53.4881 6.01392 56.4739 6.01392Z" fill="#ECECEC" fill-opacity="0.5"/>
<path fill-rule="evenodd" clip-rule="evenodd" d="M30.519 8.14608C30.5403 8.33993 30.5617 8.46916 30.583 8.61993C30.9882 10.8384 32.7797 12.3676 34.9977 12.4107C36.6825 12.4322 37.9835 11.743 38.9645 10.3645C39.4764 9.63224 40.3934 9.54608 41.0332 10.1922C41.3318 10.5153 41.3958 10.903 41.0972 11.2907C40.9692 11.4845 40.8413 11.6569 40.692 11.8076C39.9669 12.8845 38.9645 13.5738 37.7489 13.983C35.9574 14.5861 34.1659 14.6292 32.4384 13.9399C29.9645 12.9707 28.5783 11.0538 28.2797 8.38301C28.1304 7.0907 28.2584 5.84147 28.7915 4.65685C29.8366 2.41685 31.5214 1.03839 33.974 0.715311C35.2749 0.543003 36.5759 0.650695 37.7702 1.14608C39.9456 2.0507 41.2038 3.75224 41.6944 6.05685C41.7797 6.57377 41.8437 7.13377 41.865 7.6507C41.8863 8.08147 41.801 8.16762 41.3531 8.16762C40.5854 8.16762 39.7749 8.16762 38.9858 8.16762C36.3413 8.16762 33.6967 8.16762 31.0948 8.16762C30.9029 8.14608 30.7323 8.14608 30.519 8.14608ZM39.583 5.94916C39.3057 4.09685 37.1304 2.52454 34.9977 2.56762C32.929 2.6107 30.7749 4.2907 30.6043 5.94916C33.5901 5.94916 36.5546 5.94916 39.583 5.94916Z" fill="#ECECEC" fill-opacity="0.5"/>
<path fill-rule="evenodd" clip-rule="evenodd" d="M67.628 9.13728C67.7987 9.28805 67.884 9.3742 67.9906 9.46036C69.1423 10.4511 70.2939 11.4419 71.4243 12.4327C71.4882 12.4973 71.5949 12.5834 71.6589 12.6481C72.0854 13.0788 72.128 13.7034 71.7228 14.1342C71.3389 14.565 70.7418 14.6296 70.2939 14.2634C69.4835 13.5957 68.7157 12.9065 67.9266 12.2388C66.7963 11.2696 65.6873 10.3004 64.5569 9.33113C64.4716 9.24497 64.3437 9.15882 64.1731 9.02959C64.1731 9.26651 64.1517 9.41728 64.1517 9.56805C64.1517 12.3034 64.1517 10.2573 64.1517 12.9927C64.1517 13.1219 64.1517 13.2511 64.1517 13.3804C64.1091 13.9834 63.6612 14.4142 63.0641 14.3711C62.4882 14.3496 62.1043 13.9188 62.083 13.3157C62.083 13.1865 62.083 13.0573 62.083 12.9281C62.083 7.5219 62.083 6.89728 62.083 1.49113C62.083 1.31882 62.083 1.16805 62.083 0.995743C62.083 0.60805 62.1257 0.543435 62.4882 0.543435C62.9787 0.521896 63.4693 0.521896 63.9598 0.521896C65.1328 0.521896 66.3484 0.564973 67.5214 0.500358C69.5048 0.414204 71.7228 2.02959 71.9361 4.37728C72.128 6.48805 70.6991 8.49113 68.5664 8.9219C68.2892 8.98651 67.9906 9.07267 67.628 9.13728ZM64.0238 7.47882C64.1517 7.50036 64.237 7.50036 64.301 7.50036C65.2821 7.50036 66.2844 7.50036 67.2655 7.50036C67.5427 7.50036 67.8413 7.47882 68.1186 7.37113C69.0356 7.09113 69.7607 6.53113 69.9953 5.54036C70.4006 3.83882 69.1423 2.28805 67.4148 2.28805C66.3911 2.28805 65.3887 2.28805 64.3437 2.28805C64.2157 2.28805 64.1091 2.30959 63.9811 2.30959C64.0238 4.03267 64.0238 5.7342 64.0238 7.47882Z" fill="#ECECEC" fill-opacity="0.5"/>
<path fill-rule="evenodd" clip-rule="evenodd" d="M22.8413 8.1678C20.8792 8.1678 18.9811 8.1678 17.0403 8.1678C17.0403 8.34011 17.019 8.49088 17.019 8.64165C17.019 10.1493 17.019 11.6355 17.019 13.1432C17.019 13.337 17.019 13.5309 16.9763 13.6817C16.8271 14.134 16.3579 14.414 15.91 14.3924C15.4195 14.3493 15.0143 13.9616 14.9503 13.4663C14.929 13.337 14.9503 13.2293 14.9503 13.1001C14.9503 7.73704 14.929 7.09088 14.929 1.74934C14.929 1.53396 14.9503 1.31858 15.0143 1.12473C15.1849 0.672422 15.6541 0.41396 16.1446 0.478576C16.5925 0.543191 16.9763 0.930883 17.019 1.40473C17.0403 1.5555 17.019 1.68473 17.019 1.8355C17.019 4.59242 17.0403 2.63242 17.0403 5.38934C17.0403 5.56165 17.0617 5.71242 17.0617 5.86319C17.4242 5.94934 22.4574 5.94934 22.8413 5.86319C22.8413 5.73396 22.8626 5.60473 22.8626 5.45396C22.8626 4.24781 22.8626 3.02011 22.8626 1.81396C22.8626 1.68473 22.8626 1.57704 22.8626 1.44781C22.9053 0.909345 23.3105 0.500114 23.8436 0.478576C24.3768 0.457037 24.8673 0.866268 24.9313 1.40473C24.9526 1.53396 24.9313 1.64165 24.9313 1.77088C24.9313 5.54011 24.9313 9.2878 24.9313 13.057C24.9313 13.1863 24.9313 13.294 24.9313 13.4232C24.8673 13.9616 24.3981 14.3924 23.865 14.3709C23.3318 14.3493 22.9053 13.9186 22.8413 13.3801C22.8413 13.2509 22.8413 13.1432 22.8413 13.014C22.8413 11.5709 22.8413 10.0847 22.8413 8.64165C22.8413 8.51242 22.8413 8.36165 22.8413 8.1678Z" fill="#ECECEC" fill-opacity="0.5"/>
<path fill-rule="evenodd" clip-rule="evenodd" d="M5.8649 14.4785C4.47865 14.457 3.1777 14.1554 1.98339 13.4231C1.47154 13.1216 1.00234 12.7339 0.618457 12.2816C0.426514 12.0447 0.191916 11.8077 0.106608 11.5062C-0.0213538 11.1185 -0.0426808 10.6877 0.319878 10.3431C0.725092 9.95544 1.27959 9.80467 1.8341 10.1708C2.36727 10.5585 2.6232 11.0539 3.07106 11.5062C3.71087 12.1524 4.54263 12.497 5.43836 12.6047C6.27011 12.6908 7.08054 12.6693 7.89097 12.3893C8.21087 12.2601 8.55211 12.1093 8.82936 11.8939C9.3412 11.3124 9.49049 10.4939 8.87201 9.9339C8.57343 9.67544 8.18955 9.48159 7.80566 9.30928C6.86727 8.90005 5.88623 8.62005 4.90519 8.36159C4.09476 8.16775 3.32699 7.90928 2.51656 7.67236C2.21798 7.58621 1.9194 7.4139 1.64215 7.26313C0.895708 6.8539 0.469168 6.20775 0.341205 5.38928C0.106608 3.68775 0.725092 2.15852 2.19666 1.40467C4.49997 0.263131 6.8886 0.370823 9.19192 1.68467C9.61846 1.92159 10.0237 2.28775 10.3862 2.61082C10.6635 2.84775 10.8767 3.19236 10.9834 3.55852C11.09 4.01082 10.8767 4.48467 10.3222 4.6139C9.85305 4.72159 9.42651 4.57082 9.08528 4.20467C9.0213 4.14005 8.95732 4.0539 8.91466 3.98928C8.38149 3.17082 7.59239 2.71852 6.654 2.54621C5.71561 2.3739 4.77722 2.39544 3.88149 2.76159C3.56158 2.89082 3.22035 3.06313 2.96443 3.30005C2.58054 3.81698 2.43125 4.50621 2.9431 5.15236C3.34831 5.54005 3.81751 5.75544 4.32936 5.86313C5.45969 6.14313 6.61135 6.44467 7.74168 6.72467C8.4668 6.91852 9.17059 7.15544 9.83173 7.54313C10.6848 7.99544 11.3033 8.66313 11.5166 9.63236C11.7725 10.817 11.5166 11.937 10.5995 12.7985C9.55447 13.7462 8.36016 14.2631 6.97391 14.4139C6.59002 14.457 6.20613 14.457 5.8649 14.4785Z" fill="#ECECEC" fill-opacity="0.5"/>
</g>
<defs>
<clipPath id="clip0_66_126">
<rect width="72" height="14" fill="white" transform="translate(0 0.5)"/>
</clipPath>
</defs>
</svg>
