<svg width="30" height="31" viewBox="0 0 30 31" fill="none" xmlns="http://www.w3.org/2000/svg">
<path d="M18.9258 1.88891C16.957 2.08555 15.1113 2.91381 13.7812 4.19493C13.3945 4.56436 13.3008 4.74312 13.3008 5.10065C13.3008 5.64289 13.7168 6.07787 14.2266 6.07787C14.5664 6.07787 14.748 5.98849 15.0879 5.66672C15.9727 4.82059 17.1094 4.22472 18.3398 3.95658C18.9492 3.82549 20.1152 3.81357 20.7422 3.92679C23.4785 4.42731 25.6465 6.63203 26.1387 9.41473C26.25 10.0404 26.2324 11.2381 26.1094 11.8578C25.8516 13.1151 25.3184 14.1578 24.4043 15.2006C24.0645 15.5879 23.9824 15.8144 24.0469 16.1957C24.1406 16.8035 24.8086 17.1491 25.3887 16.8988C25.8047 16.7201 26.6953 15.5641 27.2109 14.5452C28.1777 12.6205 28.418 10.4515 27.8906 8.36601C27.1113 5.3092 24.7793 2.93168 21.7734 2.14514C20.8535 1.90679 19.7344 1.80549 18.9258 1.88891Z" fill="#1E1E7A"/>
<path d="M6.53323 3.47983C6.28128 3.599 3.34573 6.63198 3.05277 7.07292C2.48441 7.94289 2.02738 9.11675 1.86917 10.0999C1.7637 10.7554 1.77542 12.0127 1.89261 12.6622C2.01566 13.3474 2.63675 15.2244 3.09964 16.297C3.76761 17.8462 4.75784 19.4968 5.83597 20.8852C6.49808 21.7313 8.63089 23.9002 9.46292 24.5736C11.3496 26.099 13.541 27.3146 15.7032 28.0296C16.7344 28.3752 17.4844 28.5242 18.5391 28.6017C19.8633 28.697 20.8711 28.554 21.8614 28.125C22.7754 27.7317 23.0801 27.4874 24.8379 25.7176C25.7578 24.7881 26.5313 23.9598 26.5782 23.8526C26.6836 23.6023 26.6836 23.3461 26.5723 23.072C26.4551 22.7979 21.1114 17.3278 20.7891 17.155C20.5489 17.0299 20.1914 17.006 19.9395 17.1073C19.8516 17.1431 19.1309 17.8224 18.3399 18.6209L16.9043 20.0688L16.6407 20.0211C15.9844 19.8901 15.1114 19.4372 14.1973 18.7519C13.3946 18.1501 12.1758 16.9047 11.5547 16.0586C11.0274 15.3436 10.4239 14.1816 10.3067 13.6513L10.2364 13.3355L11.6485 11.8935C12.4219 11.1069 13.0957 10.374 13.1485 10.2668C13.2774 10.0105 13.2657 9.63515 13.1309 9.36701C12.961 9.03928 7.58206 3.60496 7.31253 3.48579C7.04886 3.37853 6.76761 3.37257 6.53323 3.47983ZM9.77933 11.0056C8.40238 12.4179 8.40823 12.4119 8.41409 13.4964C8.41409 14.1459 8.43167 14.2591 8.60159 14.7179C8.92972 15.6296 9.61527 16.8035 10.3946 17.7866C10.9278 18.46 12.2344 19.747 12.8907 20.2416C13.8868 20.9865 14.9239 21.5704 15.7032 21.8207C16.0489 21.9279 16.2774 21.9577 16.7871 21.9577C17.7832 21.9577 17.8008 21.9458 19.1778 20.5634L20.3321 19.4014L22.3242 21.4214L24.3164 23.4474L23.3028 24.4842C22.6934 25.1099 22.1309 25.6283 21.8731 25.8011C21 26.385 19.9629 26.7068 18.8965 26.7127C18.0996 26.7127 17.7071 26.6412 16.6992 26.2956C14.3145 25.4853 12.545 24.514 10.6934 23.0243C9.83792 22.3331 7.89261 20.337 7.24222 19.4849C5.85941 17.6734 4.90433 15.8381 4.14261 13.5262C3.80277 12.5013 3.73245 12.108 3.73831 11.2619C3.74417 10.374 3.92581 9.62324 4.34769 8.75923C4.64066 8.15144 4.68167 8.10377 5.79495 6.95374L6.93753 5.77392L8.92972 7.79988L10.9278 9.83179L9.77933 11.0056Z" fill="#1E1E7A"/>
<path d="M18.7207 5.80368C17.5313 6.04202 16.1661 6.92391 15.9961 7.56149C15.8262 8.21099 16.2774 8.81877 16.9219 8.81877C17.2207 8.81877 17.4141 8.72343 17.795 8.3957C18.3926 7.86538 19.2364 7.61512 19.9922 7.73429C21.2051 7.92497 22.1719 8.89028 22.3887 10.1356C22.5235 10.9103 22.2774 11.7922 21.7383 12.4238C21.334 12.9005 21.2403 13.258 21.4102 13.6632C21.5977 14.116 22.0371 14.3186 22.5879 14.2173C23.0098 14.1339 23.7481 13.1567 24.0762 12.2331C25.0313 9.58148 23.5723 6.66769 20.9063 5.89901C20.3496 5.73813 19.2891 5.69046 18.7207 5.80368Z" fill="#1E1E7A"/>
</svg>
