<svg width="30" height="30" viewBox="0 0 30 30" fill="none" xmlns="http://www.w3.org/2000/svg">
<path d="M15.5273 2.85352C15.416 2.86523 14.9765 2.94141 14.5547 3.01758C12.7383 3.36328 10.9687 4.14844 9.48045 5.2793C8.87107 5.74219 7.8867 6.69141 7.42381 7.26562C6.26365 8.70117 5.3906 10.4941 4.98045 12.2637L4.84568 12.8438L3.63865 11.6367C2.97654 10.9746 2.35545 10.4062 2.26755 10.3711C1.6699 10.1543 1.03123 10.4941 0.955055 11.0742C0.878883 11.6309 0.837867 11.584 3.00584 13.7578C4.1074 14.8652 5.08006 15.8086 5.16795 15.8555C5.35545 15.9551 5.87107 15.9668 6.05271 15.873C6.23435 15.7793 10.125 11.9004 10.2304 11.707C10.3418 11.4961 10.3359 11.0508 10.2187 10.8047C10.0371 10.4238 9.60349 10.248 9.09959 10.3418C8.91209 10.377 8.72459 10.5293 7.92185 11.3262L6.96677 12.2754L7.17771 11.6602C8.27927 8.48438 10.8398 6.05859 14.0801 5.12695C15.1054 4.82812 15.539 4.77539 16.875 4.77539C17.959 4.77539 18.2285 4.79297 18.8027 4.91016C20.959 5.34961 22.7754 6.3457 24.2871 7.92188C25.6406 9.32812 26.5371 11.0332 26.9648 13.0078C27.082 13.5527 27.0937 13.7871 27.0937 15C27.0937 16.2129 27.082 16.4473 26.9648 16.9922C26.666 18.3574 26.1445 19.5938 25.3886 20.7422C24.7793 21.6621 23.5605 22.8867 22.6523 23.4902C20.789 24.7266 19.0019 25.2598 16.7461 25.2598C15.5508 25.2539 15.3574 25.3066 15.1172 25.6875C14.9824 25.9102 14.9472 26.3496 15.0469 26.6016C15.123 26.7891 15.3926 27.0469 15.6035 27.123C15.8203 27.2051 17.6953 27.2051 18.3398 27.123C19.7051 26.959 21.0058 26.5664 22.248 25.9629C25.9043 24.1699 28.3828 20.7598 28.9746 16.6934C29.0918 15.8672 29.0918 14.1328 28.9746 13.3066C28.1719 7.78711 23.8535 3.55664 18.3398 2.87109C17.8828 2.81836 16.0019 2.80078 15.5273 2.85352Z" fill="#1E1E7A"/>
<path d="M16.3594 8.55469C16.2539 8.61914 16.1191 8.75391 16.0547 8.85938C15.9434 9.04688 15.9375 9.16406 15.9375 12.1875C15.9375 15.2109 15.9434 15.3281 16.0547 15.5156C16.1191 15.6211 16.2539 15.7559 16.3594 15.8203C16.541 15.9316 16.6582 15.9375 18.75 15.9375C20.8418 15.9375 20.959 15.9316 21.1406 15.8203C21.4219 15.6445 21.5625 15.3809 21.5625 15C21.5625 14.6191 21.4219 14.3555 21.1406 14.1797C20.959 14.0684 20.8418 14.0625 19.3828 14.0625H17.8125V11.5547C17.8125 9.16406 17.8066 9.04688 17.6953 8.85938C17.5195 8.57812 17.2559 8.4375 16.875 8.4375C16.6582 8.4375 16.4883 8.47266 16.3594 8.55469Z" fill="#1E1E7A"/>
<path d="M5.76572 17.9238C5.53135 18.0645 5.40244 18.2461 5.32627 18.5391C5.25596 18.8027 5.379 19.2715 5.70127 19.9219C5.93564 20.3965 6.16416 20.5664 6.57432 20.5664C7.15439 20.5664 7.5001 20.2559 7.54697 19.7109C7.57041 19.4531 7.53525 19.3066 7.35361 18.8555C7.08408 18.1875 7.01377 18.0703 6.77939 17.9297C6.52744 17.7715 6.01182 17.7715 5.76572 17.9238Z" fill="#1E1E7A"/>
<path d="M7.89853 21.205C7.34775 21.3808 7.06064 21.9961 7.28915 22.5175C7.42978 22.8457 8.48446 23.9531 8.83017 24.1347C9.00009 24.2226 9.39267 24.2168 9.62704 24.1172C10.0606 23.9414 10.2892 23.4023 10.1368 22.9336C10.0606 22.705 8.90048 21.4218 8.64267 21.2871C8.46103 21.1875 8.08603 21.1465 7.89853 21.205Z" fill="#1E1E7A"/>
<path d="M11.168 24.1582C10.8809 24.3223 10.7227 24.6094 10.7227 24.9785C10.7227 25.5879 10.9922 25.8047 12.4102 26.3731C12.9082 26.5723 13.1191 26.584 13.459 26.4258C14.2266 26.0801 14.1211 24.8906 13.3008 24.6387C13.2188 24.6152 12.873 24.4629 12.5332 24.3106C11.8184 23.9766 11.5312 23.9473 11.168 24.1582Z" fill="#1E1E7A"/>
</svg>
