<svg width="30" height="30" viewBox="0 0 30 30" fill="none" xmlns="http://www.w3.org/2000/svg">
<g clip-path="url(#clip0_2001_144)">
<path d="M13.1544 1.03125C9.07625 1.58203 5.54304 3.7793 3.28132 7.16602C2.06843 8.98242 1.33015 10.9512 1.01961 13.2129C0.896558 14.1094 0.931714 16.3711 1.0782 17.2266C1.35945 18.8438 2.02156 20.7305 2.70711 21.8848L2.84773 22.1191L1.89265 24.9902C0.867261 28.0781 0.826246 28.2598 1.05476 28.6406C1.22468 28.9219 1.49421 29.0625 1.86336 29.0625C2.03328 29.0625 3.76765 28.7988 5.71882 28.4707L9.2696 27.8789L9.88484 28.1191C11.5606 28.7812 13.0899 29.0625 15.0001 29.0625C16.711 29.0625 17.8887 28.875 19.4825 28.3535C24.5567 26.6895 28.2657 22.1719 28.9747 16.7988C29.0919 15.8906 29.0919 14.1094 28.9747 13.2012C28.5645 10.0781 27.1759 7.24805 24.961 5.03906C22.752 2.82422 19.9219 1.43555 16.7989 1.02539C15.9434 0.914062 13.9805 0.914062 13.1544 1.03125ZM17.0802 3.04102C18.3458 3.27539 19.4708 3.65625 20.5606 4.21875C23.6427 5.80664 25.9278 8.68359 26.7833 12.0469C27.2403 13.8516 27.2579 15.9434 26.8302 17.7715C25.8809 21.8203 22.8927 25.125 18.9552 26.4785C17.6251 26.9414 16.4473 27.1348 15.0001 27.1348C13.2774 27.1348 11.9005 26.8594 10.3009 26.1855C9.92 26.0273 9.545 25.8984 9.46882 25.8984C9.39265 25.8984 7.99226 26.1211 6.35164 26.3965C4.71687 26.666 3.36336 26.8828 3.35164 26.8652C3.33992 26.8535 3.6739 25.8047 4.09578 24.5391C4.62898 22.9453 4.86335 22.1543 4.86335 21.9727C4.86335 21.7676 4.81062 21.6152 4.62312 21.2988C3.02937 18.5801 2.51375 15.6152 3.1114 12.5977C3.39265 11.1914 4.05476 9.58008 4.84578 8.37891C6.82039 5.39062 9.86726 3.46875 13.4532 2.95898C14.3028 2.83594 16.2305 2.88281 17.0802 3.04102Z" fill="#1E1E7A"/>
<path d="M14.4844 4.79883C14.1973 4.98047 14.0625 5.25 14.0625 5.625C14.0625 6.24023 14.3789 6.5332 15.1113 6.58594C16.5 6.69141 17.3379 6.87305 18.2227 7.24805C19.5762 7.82812 20.7363 8.71289 21.5859 9.81445C22.0547 10.418 22.1953 10.6465 22.5293 11.3027C23.0391 12.3223 23.291 13.2773 23.3789 14.5488C23.4375 15.3867 23.5137 15.5801 23.8477 15.8027C23.9883 15.9023 24.123 15.9375 24.3691 15.9375C24.7559 15.9375 25.0195 15.8027 25.2012 15.5156C25.3125 15.334 25.3184 15.2578 25.2891 14.4141C25.1133 9.24023 20.7305 4.86914 15.5566 4.70508C14.7422 4.68164 14.666 4.6875 14.4844 4.79883Z" fill="#1E1E7A"/>
</g>
<defs>
<clipPath id="clip0_2001_144">
<rect width="30" height="30" fill="white"/>
</clipPath>
</defs>
</svg>
