<svg width="30" height="30" viewBox="0 0 30 30" fill="none" xmlns="http://www.w3.org/2000/svg">
<g clip-path="url(#clip0_2001_156)">
<path d="M11.1621 1.04297C10.6582 1.20117 10.4238 1.30664 10.0371 1.57031C9.14062 2.17969 8.51953 3.23438 8.44922 4.25977L8.41992 4.6875H5.83008C3.64453 4.6875 3.19336 4.69922 2.92383 4.78125C2.05664 5.03321 1.31836 5.76563 1.04883 6.62696C0.949219 6.9375 0.9375 7.17188 0.9375 8.44336C0.9375 9.76172 0.949219 9.94336 1.06055 10.2656C1.30078 10.9805 1.79883 11.5605 2.47852 11.9004L2.8125 12.0703V19.4238C2.8125 26.7188 2.8125 26.7832 2.93555 27.1465C3.22852 28.0254 3.9375 28.7168 4.79883 28.9688C5.08594 29.0508 6.15234 29.0625 15.0117 29.0625C24.873 29.0625 24.9082 29.0625 25.2715 28.9395C26.1504 28.6465 26.8418 27.9375 27.0938 27.0762C27.1758 26.7891 27.1875 25.9453 27.1875 19.4121V12.0703L27.5449 11.8945C28.207 11.5605 28.6992 10.9805 28.9395 10.2656C29.0508 9.94336 29.0625 9.76172 29.0625 8.44336C29.0625 7.17188 29.0508 6.9375 28.9512 6.62696C28.6816 5.76563 27.9434 5.03321 27.0762 4.78125C26.8066 4.69922 26.3555 4.6875 24.1699 4.6875H21.5801L21.5508 4.25977C21.457 2.87696 20.4082 1.5586 19.0371 1.10742C18.668 0.984377 18.4922 0.966799 17.8125 0.966799C17.1387 0.966799 16.9629 0.984377 16.6348 1.10156C16.1543 1.26563 15.6152 1.58789 15.2637 1.92188L15 2.16797L14.7363 1.91602C14.3965 1.59375 13.9395 1.31836 13.4297 1.125C12.8965 0.925783 11.7012 0.884768 11.1621 1.04297ZM13.0605 3.07617C13.5586 3.35156 13.9219 3.86719 13.9863 4.40039L14.0215 4.6875H12.1875H10.3535L10.3887 4.40039C10.4473 3.90821 10.7637 3.41016 11.1738 3.15821C11.5488 2.92383 11.7832 2.8711 12.2754 2.88867C12.6621 2.90625 12.8027 2.93555 13.0605 3.07617ZM18.6855 3.07617C19.1836 3.35156 19.5469 3.86719 19.6113 4.40039L19.6465 4.6875H17.8125H15.9785L16.0137 4.40039C16.0723 3.90821 16.3887 3.41016 16.7988 3.15821C17.1738 2.92383 17.4082 2.8711 17.9004 2.88867C18.2871 2.90625 18.4277 2.93555 18.6855 3.07617ZM26.3906 6.6211C26.6777 6.68555 26.8887 6.83789 27.041 7.09571C27.1465 7.27735 27.1582 7.40039 27.1582 8.4375C27.1582 9.47461 27.1465 9.59766 27.041 9.7793C26.8887 10.0371 26.6777 10.1895 26.3906 10.2539C26.0859 10.3301 3.91406 10.3301 3.60938 10.2539C3.32227 10.1895 3.11133 10.0371 2.95898 9.7793C2.85352 9.59766 2.8418 9.47461 2.8418 8.4375C2.8418 7.40039 2.85352 7.27735 2.95898 7.09571C3.10547 6.84961 3.32227 6.67969 3.58008 6.6211C3.86133 6.55664 26.1094 6.55078 26.3906 6.6211ZM25.3008 19.3184C25.2832 26.3379 25.2832 26.4609 25.166 26.6543C25.0137 26.9121 24.8027 27.0645 24.5156 27.1289C24.2109 27.1992 5.78906 27.1992 5.48438 27.1289C5.19727 27.0645 4.98633 26.9121 4.83398 26.6543C4.7168 26.4609 4.7168 26.3379 4.69922 19.3184L4.6875 12.1875H15H25.3125L25.3008 19.3184Z" fill="#1E1E7A"/>
</g>
<defs>
<clipPath id="clip0_2001_156">
<rect width="30" height="30" fill="white"/>
</clipPath>
</defs>
</svg>
