<svg width="30" height="31" viewBox="0 0 30 31" fill="none" xmlns="http://www.w3.org/2000/svg">
<path d="M4.45312 1.07252C2.80078 1.5075 1.4707 2.86608 1.05469 4.55239C0.9375 5.01717 0.9375 5.23764 0.9375 15.2542C0.9375 25.2707 0.9375 25.4912 1.05469 25.956C1.20703 26.5638 1.62305 27.4099 1.97461 27.827C2.64844 28.6255 3.54492 29.1975 4.47656 29.4359C4.92773 29.555 5.16797 29.555 15 29.555C26.4375 29.555 25.4297 29.6027 26.543 29.0366C27.0176 28.7983 27.1816 28.6672 27.6855 28.1547C28.1895 27.6423 28.3184 27.4755 28.5527 26.9928C29.1094 25.8607 29.0625 26.8855 29.0625 15.2542C29.0625 5.23764 29.0625 5.01717 28.9453 4.55239C28.5234 2.85416 27.1934 1.50154 25.5234 1.07252C25.0664 0.953342 24.8555 0.953342 14.9766 0.959301C5.20898 0.959301 4.88086 0.965261 4.45312 1.07252ZM25.1777 3.01505C26.0859 3.33682 26.7773 4.05186 27.0527 4.97546C27.1523 5.3151 27.1582 5.81563 27.1582 15.2542C27.1582 24.6928 27.1523 25.1933 27.0527 25.5329C26.7656 26.4863 26.0098 27.249 25.0957 27.5053C24.7148 27.6125 24.2871 27.6185 15 27.6185C5.71289 27.6185 5.28516 27.6125 4.9043 27.5053C3.99023 27.249 3.23438 26.4863 2.94727 25.5329C2.84766 25.1933 2.8418 24.6928 2.8418 15.2542C2.8418 5.81563 2.84766 5.3151 2.94727 4.97546C3.28125 3.86118 4.17773 3.0806 5.30273 2.91971C5.49609 2.89588 9.9668 2.878 15.2344 2.88396L24.8145 2.88992L25.1777 3.01505Z" fill="#1E1E7A"/>
<path d="M7.6875 6.79888C7.27148 6.96572 6.84375 7.4007 6.68555 7.83569C6.56836 8.15746 6.5625 8.27067 6.5625 11.4407C6.5625 14.5988 6.56836 14.7239 6.68555 15.0397C6.83203 15.439 7.18945 15.8322 7.58789 16.0289L7.88086 16.1778L14.9238 16.1957C21.9492 16.2076 21.9668 16.2076 22.2949 16.0825C22.7285 15.9157 23.1504 15.4926 23.3145 15.0457C23.4316 14.7239 23.4375 14.6107 23.4375 11.4407C23.4375 8.27067 23.4316 8.15746 23.3145 7.83569C23.1504 7.39474 22.7285 6.96572 22.2949 6.79888C21.9727 6.67374 21.9258 6.67374 14.9824 6.6797C8.10938 6.6797 7.99219 6.6797 7.6875 6.79888ZM21.5625 11.4407V14.3009H15H8.4375V11.4407V8.58052H15H21.5625V11.4407Z" fill="#1E1E7A"/>
<path d="M6.98438 18.2335C6.70312 18.4123 6.5625 18.6804 6.5625 19.0677C6.5625 19.455 6.70312 19.7232 6.98438 19.9019C7.17188 20.0211 7.29492 20.0211 15 20.0211C22.7051 20.0211 22.8281 20.0211 23.0156 19.9019C23.2969 19.7232 23.4375 19.455 23.4375 19.0677C23.4375 18.6804 23.2969 18.4123 23.0156 18.2335C22.8281 18.1143 22.7051 18.1143 15 18.1143C7.29492 18.1143 7.17188 18.1143 6.98438 18.2335Z" fill="#1E1E7A"/>
<path d="M6.98438 22.0471C6.70312 22.2259 6.5625 22.494 6.5625 22.8813C6.5625 23.2686 6.70312 23.5368 6.98438 23.7155C7.17188 23.8347 7.29492 23.8347 15 23.8347C22.7051 23.8347 22.8281 23.8347 23.0156 23.7155C23.2969 23.5368 23.4375 23.2686 23.4375 22.8813C23.4375 22.494 23.2969 22.2259 23.0156 22.0471C22.8281 21.9279 22.7051 21.9279 15 21.9279C7.29492 21.9279 7.17188 21.9279 6.98438 22.0471Z" fill="#1E1E7A"/>
</svg>
