<svg width="30" height="30" viewBox="0 0 30 30" fill="none" xmlns="http://www.w3.org/2000/svg">
<path d="M5.67188 1.04883C4.82227 1.32422 4.0957 2.06836 3.84375 2.92383C3.76172 3.21094 3.75 4.44141 3.75 15.0117C3.75 26.7715 3.75 26.7832 3.87305 27.1465C4.16602 28.0254 4.875 28.7168 5.73633 28.9688C6.02344 29.0508 7.00781 29.0625 15.0117 29.0625C23.9238 29.0625 23.9707 29.0625 24.334 28.9395C25.2129 28.6465 25.9043 27.9375 26.1562 27.0762C26.2383 26.7891 26.25 25.5586 26.25 14.9941C26.25 3.61523 26.2441 3.22266 26.1387 2.87695C25.8691 2.01562 25.1309 1.2832 24.2637 1.03125C23.9766 0.949219 22.9922 0.9375 14.9766 0.943359C6.43945 0.943359 5.98828 0.949219 5.67188 1.04883ZM23.8418 2.95898C24.0996 3.11133 24.252 3.32227 24.3164 3.60938C24.3926 3.91406 24.3926 26.0859 24.3164 26.3906C24.252 26.6777 24.0996 26.8887 23.8418 27.041C23.6426 27.1582 23.5371 27.1582 15 27.1582C6.38672 27.1582 6.35742 27.1582 6.15234 27.0352C5.87109 26.8711 5.69531 26.5957 5.6543 26.2324C5.63672 26.0625 5.625 20.8887 5.63672 14.7363C5.6543 3.66797 5.6543 3.54492 5.77148 3.3457C5.91797 3.09961 6.13477 2.92969 6.39258 2.87109C6.50391 2.84766 10.4297 2.83008 15.1172 2.83008C23.5312 2.8418 23.6426 2.8418 23.8418 2.95898Z" fill="#1E1E7A"/>
<path d="M8.85938 8.55469C8.57812 8.73047 8.4375 8.99414 8.4375 9.375C8.4375 9.75586 8.57812 10.0195 8.85938 10.1953C9.04688 10.3066 9.16406 10.3125 12.1875 10.3125C15.2109 10.3125 15.3281 10.3066 15.5156 10.1953C15.7969 10.0195 15.9375 9.75586 15.9375 9.375C15.9375 8.99414 15.7969 8.73047 15.5156 8.55469C15.3281 8.44336 15.2109 8.4375 12.1875 8.4375C9.16406 8.4375 9.04688 8.44336 8.85938 8.55469Z" fill="#1E1E7A"/>
<path d="M8.85938 14.1797C8.57812 14.3555 8.4375 14.6191 8.4375 15C8.4375 15.3809 8.57812 15.6445 8.85938 15.8203C9.04688 15.9375 9.16992 15.9375 15 15.9375C20.8301 15.9375 20.9531 15.9375 21.1406 15.8203C21.4219 15.6445 21.5625 15.3809 21.5625 15C21.5625 14.6191 21.4219 14.3555 21.1406 14.1797C20.9531 14.0625 20.8301 14.0625 15 14.0625C9.16992 14.0625 9.04688 14.0625 8.85938 14.1797Z" fill="#1E1E7A"/>
<path d="M8.85938 19.8047C8.57812 19.9805 8.4375 20.2441 8.4375 20.625C8.4375 21.0059 8.57812 21.2695 8.85938 21.4453C9.04688 21.5625 9.16992 21.5625 15 21.5625C20.8301 21.5625 20.9531 21.5625 21.1406 21.4453C21.4219 21.2695 21.5625 21.0059 21.5625 20.625C21.5625 20.2441 21.4219 19.9805 21.1406 19.8047C20.9531 19.6875 20.8301 19.6875 15 19.6875C9.16992 19.6875 9.04688 19.6875 8.85938 19.8047Z" fill="#1E1E7A"/>
</svg>
