<svg width="20" height="20" viewBox="0 0 20 20" fill="none" xmlns="http://www.w3.org/2000/svg">
<path fill-rule="evenodd" clip-rule="evenodd" d="M2.97076 3.50101C2.90293 3.50003 2.82443 3.50001 2.72362 3.50001H2.5C1.94772 3.50001 1.5 3.05229 1.5 2.50001C1.5 1.94772 1.94772 1.50001 2.5 1.50001H2.72362C2.73229 1.50001 2.74098 1.5 2.74968 1.5C2.92432 1.49997 3.10572 1.49994 3.26276 1.5117C3.44005 1.52498 3.65581 1.55677 3.88176 1.65672C4.19437 1.795 4.46159 2.01769 4.65401 2.29953C4.79315 2.50333 4.86353 2.70941 4.90874 2.88115C4.94875 3.03316 4.98157 3.21113 5.01314 3.38226C5.01471 3.39081 5.01629 3.39934 5.01786 3.40785L5.12718 4.00001L15.8583 4C16.1147 3.99996 16.3679 3.99993 16.5802 4.01865C16.8103 4.03894 17.1057 4.08817 17.3932 4.26019C17.7718 4.48681 18.0597 4.84412 18.1972 5.26957C18.3003 5.58863 18.2815 5.88803 18.2496 6.11633C18.2201 6.32751 18.1631 6.57416 18.1055 6.8236L18.0982 6.85526L18.0979 6.85645L18.0975 6.85817L16.7868 12.5379L16.7835 12.5519C16.7461 12.7141 16.7071 12.8836 16.6623 13.0283C16.6115 13.1925 16.5357 13.3878 16.3956 13.5799C16.2023 13.845 15.9403 14.0558 15.6341 14.1864C15.415 14.2798 15.2072 14.3098 15.0358 14.3223C14.8844 14.3334 14.7102 14.3334 14.5433 14.3333L5.83337 14.3334C5.3511 14.3334 4.93754 13.9892 4.84998 13.5149L3.0511 3.77095C3.03285 3.67213 3.01863 3.59523 3.0054 3.52896C3.00347 3.51933 3.00162 3.51019 2.99984 3.50151C2.99066 3.50133 2.98098 3.50116 2.97076 3.50101ZM3.82812 2.86337L3.14027 3.33298L3.82812 2.86337ZM5.49641 6.00001L6.66565 12.3334L14.5182 12.3333C14.6146 12.3333 14.6896 12.3333 14.7543 12.3324C14.7634 12.3323 14.7721 12.3321 14.7803 12.332C14.7823 12.3241 14.7844 12.3157 14.7865 12.307C14.8019 12.2443 14.8188 12.1715 14.8404 12.0777L14.8434 12.0646L16.1483 6.41016L16.1486 6.40898L16.149 6.40725C16.19 6.22957 16.2193 6.10133 16.2395 6.00277C16.1389 6.00034 16.0071 6.00001 15.8239 6.00001H5.49641ZM4.83333 16.6667C4.83333 15.6542 5.65414 14.8333 6.66667 14.8333C7.67919 14.8333 8.5 15.6542 8.5 16.6667C8.5 17.6792 7.67919 18.5 6.66667 18.5C5.65414 18.5 4.83333 17.6792 4.83333 16.6667ZM6.66667 16.8333C6.75871 16.8333 6.83333 16.7587 6.83333 16.6667C6.83333 16.5746 6.75871 16.5 6.66667 16.5C6.57462 16.5 6.5 16.5746 6.5 16.6667C6.5 16.7587 6.57462 16.8333 6.66667 16.8333ZM13.1667 16.6667C13.1667 15.6542 13.9875 14.8333 15 14.8333C16.0125 14.8333 16.8333 15.6542 16.8333 16.6667C16.8333 17.6792 16.0125 18.5 15 18.5C13.9875 18.5 13.1667 17.6792 13.1667 16.6667ZM15 16.8333C15.092 16.8333 15.1667 16.7587 15.1667 16.6667C15.1667 16.5746 15.092 16.5 15 16.5C14.908 16.5 14.8333 16.5746 14.8333 16.6667C14.8333 16.7587 14.908 16.8333 15 16.8333Z" fill="white"/>
</svg>
