<svg width="130" height="80" viewBox="0 0 130 80" fill="none" xmlns="http://www.w3.org/2000/svg">
<g clip-path="url(#clip0_4_72)">
<path d="M101.99 0.0946236C91.7372 0.567596 78.4155 3.66219 65.9382 8.473C64.866 8.89192 63.9815 9.24327 63.9547 9.25679C63.9279 9.28381 63.9681 9.41895 64.0485 9.5676C64.1825 9.82435 64.3567 9.7703 68.2433 8.45949C85.2238 2.68922 100.569 0.702732 111.17 2.91895C116.853 4.12165 120.779 6.36489 122.964 9.66219C125.162 13 125.202 17.7298 123.085 22.5811C122.83 23.1487 122.629 23.6622 122.629 23.7027C122.629 23.7433 123.862 23.7838 125.363 23.7838H128.11L128.499 22.7298C130.59 17.2703 130.456 12.5946 128.097 8.54057C127.48 7.473 125.189 5.18922 123.902 4.33787C119.024 1.13516 111.411 -0.337809 101.99 0.0946236Z" fill="#1E1E7A"/>
<path d="M47.7381 10.946C47.6577 11.1352 47.0948 12.8244 46.4917 14.6892L45.3794 18.1081H41.4526C39.2948 18.1081 37.5258 18.1487 37.5258 18.2027C37.5258 18.2703 38.8392 19.2703 40.4474 20.446C42.0423 21.6081 43.4629 22.6622 43.5969 22.7568C43.8247 22.9325 43.7845 23.1487 42.6319 26.7027C41.9618 28.7703 41.4392 30.473 41.4526 30.4865C41.4928 30.5271 47.0814 26.473 47.4567 26.1352C47.7917 25.8379 47.9794 25.9054 48.9845 26.6622C51.3701 28.4595 54.2783 30.5271 54.2783 30.4325C54.2783 30.2838 52.1876 23.7298 51.9866 23.2568C51.9196 23.0811 51.8794 22.9189 51.8928 22.9054C52.9247 22.1487 57.2134 19 57.6959 18.6622L58.3526 18.1757L54.3453 18.1081L50.3381 18.0406L49.1856 14.5271C47.7649 10.1757 47.9124 10.5406 47.7381 10.946ZM51.3835 19.7568L53.5144 19.7973L51.8258 21.0541C50.2443 22.2298 50.1237 22.3379 50.2175 22.6757C50.2577 22.8784 50.5526 23.8108 50.8742 24.7568C51.1825 25.7162 51.4237 26.4865 51.3969 26.4865C51.3567 26.4865 49.7082 25.2838 48.2206 24.1892L47.8721 23.9189L47.2825 24.3649C46.9742 24.6081 46.1567 25.2162 45.4732 25.7027L44.2536 26.6081L44.9103 24.6352C45.2721 23.5406 45.567 22.5541 45.567 22.4325C45.567 22.3244 44.8031 21.6757 43.8649 21.0135L42.1763 19.7973L44.334 19.7568L46.5051 19.7298L47.1216 17.7298C47.4701 16.6352 47.7783 15.6757 47.8319 15.6081C47.8721 15.5271 48.2072 16.4325 48.5691 17.5946L49.2392 19.7298L51.3835 19.7568Z" fill="#1E1E7A"/>
<path d="M15.1577 21.7163C13.1608 25.5811 2.57319 44.5406 2.27834 44.7568C2.07731 44.9054 1.59484 45.0406 1.04535 45.0946L0.160815 45.1757L0.107207 45.7703C0.0804027 46.1081 0.0938047 46.3919 0.134011 46.419C0.174217 46.4325 1.08556 46.4054 2.17112 46.3379C3.27009 46.2838 5.10618 46.2838 6.25875 46.3379C7.42473 46.3919 8.41649 46.4054 8.45669 46.3649C8.5103 46.3244 8.59071 46.0406 8.64432 45.7298L8.72473 45.1892L7.38453 45.0406C5.78968 44.8784 5.57525 44.7568 5.66906 43.973C5.73607 43.3244 6.76803 41.0406 8.20205 38.3108L9.20721 36.419H13.1474H17.0742L17.4361 39.2433C17.999 43.6217 18.0258 44.2163 17.7309 44.5811C17.4629 44.919 16.699 45.1217 15.6536 45.1352H15.0103V45.8244V46.5L15.6268 46.4054C16.4845 46.2838 24.1371 46.2703 25.1021 46.4054L25.8794 46.5135L25.8526 45.8379L25.8258 45.1622L24.8072 45.0676C24.2577 45.0135 23.6546 44.919 23.4804 44.8514C23.0783 44.7027 22.8505 44.1217 22.5959 42.6217C22.3278 41.0271 19.768 23.7027 19.5402 21.8919L19.366 20.473L17.5969 20.4325L15.8278 20.3919L15.1577 21.7163ZM16.0959 29.6081C16.4577 32.0811 16.7526 34.1892 16.7526 34.2838C16.7526 34.419 16.0825 34.4595 13.4557 34.4595C11.6464 34.4595 10.1856 34.4054 10.2124 34.3514C10.3598 33.9595 15.3454 25.0271 15.3856 25.0676C15.4124 25.0946 15.734 27.1352 16.0959 29.6081Z" fill="#1E1E7A"/>
<path d="M120.766 28.9189C117.469 29.3784 114.199 31.6892 112.832 34.527C112.028 36.2162 111.746 37.4595 111.733 39.527C111.706 41.473 111.854 42.3243 112.443 43.5135C113.368 45.3514 115.083 46.3784 117.59 46.5676C119.613 46.7297 121.275 46.2973 123.473 45.027C124.639 44.3514 124.8 44.2162 124.934 43.7568C125.189 42.9054 124.961 42.8784 123.755 43.5946C122.012 44.6351 121.463 44.7973 119.613 44.7973C118.3 44.7973 117.911 44.7433 117.536 44.5406C115.687 43.5541 115.083 42.2703 115.083 39.3919C115.097 35.6216 116.303 32.3379 118.059 31.2568C119.627 30.2973 122.053 30.2838 123.835 31.2027C124.666 31.6351 124.733 31.7703 124.76 33.2838L124.773 34.2027L125.202 34.1622L125.617 34.1216L125.859 32.7703C125.993 32.027 126.18 31.0946 126.288 30.7027L126.489 29.9865L125.872 29.6757C124.586 29.027 122.388 28.7027 120.766 28.9189Z" fill="#1E1E7A"/>
<path d="M33.3577 32.946C32.6072 33.2027 31.602 33.8514 30.1278 35.027L28.9618 35.973L29.1628 36.3649L29.3639 36.7568L29.7927 36.4324C30.4226 35.9595 31.3474 35.5135 31.5082 35.6216C31.9102 35.8649 30.4628 42.946 29.4845 45.527C29.0824 46.5676 29.2298 46.6892 30.5566 46.4189C31.1061 46.3108 31.7762 46.1892 32.0309 46.1487L32.4999 46.0811L33.103 42.946L33.7061 39.8108L34.1752 39.6892C34.6309 39.5676 37.7267 39.6081 37.8474 39.7433C37.8742 39.7703 37.7267 40.4324 37.5123 41.2162C36.6412 44.2973 36.5072 45.6351 37.003 46.2703C37.6731 47.1216 38.8927 46.6081 42.3907 44C42.5783 43.8514 42.5917 43.7568 42.4711 43.4054C42.3907 43.1622 42.2968 42.973 42.2566 42.973C42.2164 42.973 41.9618 43.1487 41.6937 43.3649C41.0505 43.8649 40.3669 44.2162 40.2061 44.1216C40.0185 44 40.0453 43.1622 40.2731 41.9324C40.4742 40.8784 42.136 34.8108 42.5381 33.6892C42.8329 32.8378 42.6855 32.7703 40.903 33.0676L39.4288 33.3108L39.335 34.027C39.2412 34.7838 38.3834 38.3784 38.2628 38.4865C38.169 38.5811 34.1886 38.5676 34.0948 38.473C34.0546 38.4324 34.1752 37.5811 34.3628 36.5946C34.8319 34.1487 34.8989 33.473 34.7247 33.1487C34.537 32.7703 34.0546 32.7027 33.3577 32.946Z" fill="#1E1E7A"/>
<path d="M49.3196 32.8243C48.6093 33.0406 47.8186 33.5541 46.2908 34.7433C45.4062 35.4325 44.6825 36 44.6557 36.027C44.6289 36.0406 44.7093 36.2433 44.8165 36.473L45.031 36.8919L45.8619 36.2162C46.3176 35.8379 46.8268 35.5406 47.0011 35.5406C47.2825 35.5406 47.3093 35.5946 47.3093 36.3108C47.3093 37.3243 46.532 41.1487 45.7681 43.8649C45.1114 46.1892 45.1114 46.2027 45.2856 46.4595C45.366 46.5946 45.5134 46.6081 45.9825 46.4865C46.3042 46.4054 46.9609 46.2973 47.4299 46.2433L48.3011 46.1487L48.6093 44.5406C49.1186 41.9189 49.8423 40.0811 51.1691 38.0541C52.3351 36.2838 53.7825 34.973 54.3588 35.1892C54.4928 35.2433 54.5464 35.4865 54.5464 35.973C54.5464 37.0811 53.7021 41.027 52.8712 43.7703C51.9732 46.7568 51.9598 46.7162 53.4877 46.4865C54.0372 46.4054 54.667 46.3108 54.8815 46.2703C55.2701 46.2162 55.2969 46.1757 55.4444 45.2298C55.7794 43.1892 56.6908 40.5676 57.6557 38.9595C58.232 37.973 59.7866 36.2973 60.5103 35.8649C61.0732 35.5406 61.4351 35.5406 61.5557 35.8649C61.6629 36.1352 61.3413 37.7162 60.5103 41.1487C60.0815 42.8514 59.7196 44.6352 59.6794 45.0946C59.6124 45.8514 59.6392 45.946 59.9475 46.2703C60.1887 46.5135 60.4433 46.6216 60.7516 46.6216C61.3681 46.6216 62.8289 45.8649 64.1289 44.8514C64.7186 44.4054 65.3217 43.946 65.4557 43.8514C65.6969 43.6757 65.6969 43.6487 65.4825 43.3243L65.2681 42.973L64.2629 43.6622C63.2444 44.3784 62.9897 44.4054 62.9897 43.8379C62.9897 43.2973 63.6464 40.0541 64.1959 37.9054C64.9196 35.0406 65.0402 34.2973 64.866 33.6622C64.6918 32.9865 64.4371 32.7838 63.7938 32.8108C61.9578 32.8919 59.2372 35.027 57.3877 37.8243C56.932 38.527 56.5567 39.0406 56.5567 38.973C56.5567 38.9054 56.7712 38.0541 57.0258 37.0946C57.5753 35.0541 57.7361 33.7027 57.5083 33.2568C56.6774 31.6892 52.898 34.1757 50.4052 37.9325C49.8825 38.7162 49.4536 39.3379 49.4536 39.2973C49.4536 39.2703 49.6681 38.2973 49.9227 37.1487C50.499 34.6622 50.633 33.4054 50.365 33.0946C50.1372 32.7973 49.7351 32.7027 49.3196 32.8243Z" fill="#1E1E7A"/>
<path d="M75.0649 32.8649C74.2876 33 73.5907 33.3784 72.3845 34.2973C70.0526 36.0811 69.5433 36.7703 68.833 39.0135C67.7206 42.6081 67.6536 45.7297 68.6855 46.4054C70.066 47.3243 72.9742 45.1216 75.2526 41.4595C75.6144 40.8784 75.9227 40.4325 75.9495 40.4595C75.9897 40.4865 75.8154 41.3919 75.5876 42.4595C75.0783 44.7568 75.0247 45.7297 75.3598 46.2568C75.9227 47.1352 77.3299 46.527 80.3721 44.0946C80.6536 43.8784 80.667 43.8108 80.5196 43.3514L80.3721 42.8649L79.6886 43.3784C78.4154 44.3243 78 44.3919 78 43.6487C78 43.1352 79.5814 35.9189 80.0639 34.2703C80.3319 33.3243 80.3721 33.027 80.2381 32.946C79.9835 32.7838 79.7959 32.8108 79.2732 33.1216L78.7907 33.4054L77.8928 33.1352C76.8474 32.7973 75.8959 32.7027 75.0649 32.8649ZM76.2711 34.6892C76.8876 34.9325 76.9144 35.0541 76.5258 36.5676C75.9763 38.7433 74.3814 41.5 72.6928 43.2027C71.634 44.2973 71.2453 44.4325 71.0175 43.8108C70.6556 42.8649 71.8752 37.473 72.8804 35.6081C73.5371 34.3919 74.7299 34.0676 76.2711 34.6892Z" fill="#1E1E7A"/>
<path d="M94.0691 32.8919C92.4206 33.3244 90.1959 35.1622 88.7083 37.3108C88.4 37.7433 88.132 38.0946 88.1052 38.0811C88.0918 38.0541 88.2928 37.0541 88.5608 35.8649C88.9763 33.9325 89.0165 33.6352 88.8557 33.2568C88.7083 32.8784 88.6278 32.8379 88.1186 32.8379C87.3546 32.8379 86.1619 33.4595 84.4732 34.7568C83.7629 35.2973 83.133 35.7838 83.066 35.8244C82.9186 35.919 83.1732 36.6217 83.3608 36.6217C83.4412 36.6217 83.7361 36.446 84.0309 36.2298C84.3124 36.0271 84.7412 35.7703 84.9825 35.6757C85.7464 35.3514 85.7732 35.7433 85.1567 39.1892C84.6876 41.7433 83.4815 47.2298 82.5969 50.7163C82.101 52.7163 81.9 53.7163 81.9938 53.8108C82.0876 53.9054 82.4093 53.8784 82.9856 53.7298C83.4412 53.6217 84.1382 53.4865 84.5134 53.4325L85.2103 53.3514L85.3041 52.446C85.4248 51.3244 85.8 49.5136 86.4567 47.0136L86.5773 46.5271L87.7567 46.5946C88.7887 46.6487 89.0299 46.6217 89.767 46.3108C92.0186 45.4054 94.2433 43.5676 94.9938 42.0136C95.9454 40.0541 96.6021 37.0946 96.4546 35.419C96.267 33.2568 95.5567 32.5 94.0691 32.8919ZM93.1577 35.5C93.6804 36.8784 92.5546 41.919 91.268 43.9595C90.6784 44.9054 90.1825 45.1622 89.1237 45.0946C88.6412 45.0676 87.9443 44.9054 87.5691 44.7433L86.8722 44.4325L87.0598 43.6081C87.3546 42.3108 87.9041 40.5541 88.3196 39.6352C89.2845 37.4865 91.0536 35.5 92.3134 35.1487C92.7959 35.0135 93.0103 35.0946 93.1577 35.5Z" fill="#1E1E7A"/>
<path d="M106.024 32.8514C104.657 33.0406 101.949 34.6622 100.944 35.8784C99.7247 37.3784 98.599 41.5 98.8268 43.6622C99.0278 45.6892 100.408 46.7703 102.593 46.5946C103.692 46.5 105.246 45.8244 107.029 44.6352C108.302 43.7973 108.423 43.6892 108.342 43.3784C108.222 42.8379 108.114 42.8244 107.485 43.2433C105.93 44.2838 103.625 44.8649 102.794 44.4325C102.151 44.0811 101.856 43.4325 101.869 42.3784C101.882 41.1217 101.99 40.7703 102.392 40.6487C102.579 40.5946 103.303 40.3919 104 40.2027C107.203 39.3244 109.079 37.7298 109.321 35.6757C109.562 33.6217 108.289 32.5271 106.024 32.8514ZM106.131 34.3919C106.587 34.6217 106.68 34.8244 106.68 35.6217C106.68 36.3784 106.091 37.5946 105.394 38.2838C104.925 38.7433 103.531 39.446 102.606 39.6757C102.231 39.7703 102.231 39.7568 102.325 39.3108C102.901 36.6352 103.745 34.8919 104.697 34.419C105.246 34.1352 105.648 34.1352 106.131 34.3919Z" fill="#1E1E7A"/>
<path d="M94.0155 51.1757C90.4237 53.473 85.8536 56.0405 81.4175 58.2703C65.335 66.3784 48.1804 71.7027 33.5051 73.1351C30.6773 73.4054 22.4887 73.3649 20.3711 73.0676C16.4979 72.5135 14.0185 71.7973 11.3247 70.473C8.38968 69.0135 6.47319 67.2162 5.29381 64.7838C3.967 62.0541 3.71236 59.0811 4.50308 55.3649C4.66391 54.6081 4.26185 55.0135 3.76597 56.1216C3.06906 57.6351 2.45257 59.473 2.11752 61.0541C1.68865 62.973 1.70205 65.946 2.13092 67.6351C3.61855 73.473 8.47009 77.2973 16.5515 78.9865C19.9289 79.6892 21.2691 79.7973 26.6701 79.7973C32.0309 79.7973 33.5722 79.6892 38.3969 78.973C58.6742 75.946 82.3691 66.0541 101.186 52.7568C102.7 51.6892 104.121 50.6622 104.335 50.4865L104.737 50.1487H100.18L95.6237 50.1622L94.0155 51.1757Z" fill="#1E1E7A"/>
</g>
<defs>
<clipPath id="clip0_4_72">
<rect width="130" height="80" fill="white"/>
</clipPath>
</defs>
</svg>
