<svg width="144" height="88" viewBox="0 0 144 88" fill="none" xmlns="http://www.w3.org/2000/svg">
<g clip-path="url(#clip0_66_74)">
<path d="M112.973 0.104002C101.616 0.624271 86.8602 4.02833 73.0392 9.32022C71.8515 9.78103 70.8717 10.1675 70.842 10.1824C70.8124 10.2121 70.8569 10.3608 70.946 10.5243C71.0944 10.8067 71.2874 10.7472 75.5926 9.30535C94.4016 2.95806 111.4 0.772921 123.142 3.21076C129.437 4.53373 133.786 7.0013 136.206 10.6283C138.641 14.2999 138.685 19.5026 136.34 24.8391C136.058 25.4635 135.835 26.0283 135.835 26.0729C135.835 26.1175 137.201 26.1621 138.863 26.1621H141.907L142.337 25.0026C144.653 18.9972 144.505 13.854 141.892 9.39454C141.209 8.22022 138.671 5.70806 137.245 4.77157C131.842 1.2486 123.409 -0.371674 112.973 0.104002Z" fill="white"/>
<path d="M52.8792 12.0402C52.7901 12.2483 52.1666 14.1064 51.4986 16.1578L50.2664 19.9186H45.9167C43.5266 19.9186 41.567 19.9632 41.567 20.0227C41.567 20.097 43.0219 21.197 44.8033 22.4902C46.5699 23.7686 48.1435 24.9281 48.292 25.0321C48.5443 25.2254 48.4998 25.4632 47.2231 29.3727C46.4808 31.647 45.9019 33.52 45.9167 33.5348C45.9612 33.5794 52.1518 29.12 52.5674 28.7483C52.9386 28.4213 53.1464 28.4956 54.2598 29.3281C56.9023 31.3051 60.1237 33.5794 60.1237 33.4754C60.1237 33.3119 57.8078 26.1024 57.5852 25.5821C57.5109 25.3889 57.4664 25.2105 57.4812 25.1956C58.6243 24.3632 63.3748 20.8997 63.9093 20.5281L64.6367 19.9929L60.1979 19.9186L55.7592 19.8443L54.4825 15.9794C52.9089 11.1929 53.0722 11.5943 52.8792 12.0402ZM56.9171 21.7321L59.2775 21.7767L57.407 23.1591C55.6553 24.4524 55.5217 24.5713 55.6256 24.9429C55.6701 25.1659 55.9967 26.1916 56.353 27.2321C56.6944 28.2875 56.9617 29.1348 56.932 29.1348C56.8874 29.1348 55.0614 27.8119 53.4136 26.6078L53.0276 26.3105L52.3744 26.801C52.033 27.0686 51.1274 27.7375 50.3703 28.2727L49.0194 29.2686L49.7468 27.0983C50.1476 25.8943 50.4742 24.8091 50.4742 24.6754C50.4742 24.5564 49.628 23.8429 48.5889 23.1146L46.7184 21.7767L49.1085 21.7321L51.5134 21.7024L52.1963 19.5024C52.5823 18.2983 52.9237 17.2429 52.9831 17.1686C53.0276 17.0794 53.3988 18.0754 53.7996 19.3537L54.5419 21.7024L56.9171 21.7321Z" fill="white"/>
<path d="M16.7901 23.8875C14.5781 28.1389 2.85026 48.9943 2.52367 49.2321C2.30099 49.3956 1.76655 49.5443 1.15789 49.6037L0.1781 49.6929L0.118718 50.347C0.0890276 50.7186 0.103873 51.0308 0.148409 51.0605C0.192945 51.0754 1.20243 51.0456 2.4049 50.9713C3.62222 50.9118 5.65604 50.9118 6.93274 50.9713C8.22429 51.0308 9.32284 51.0456 9.36738 51.001C9.42676 50.9564 9.51583 50.6443 9.57521 50.3024L9.66429 49.7078L8.17975 49.5443C6.41315 49.3659 6.17563 49.2321 6.27954 48.37C6.35377 47.6564 7.49686 45.1443 9.08532 42.1416L10.1987 40.0605H14.5633H18.9129L19.3138 43.1673C19.9373 47.9835 19.967 48.6375 19.6404 49.0389C19.3435 49.4105 18.4973 49.6335 17.3393 49.6483H16.6268V50.4064V51.1497L17.3096 51.0456C18.2598 50.9118 26.7365 50.897 27.8053 51.0456L28.6663 51.1646L28.6367 50.4213L28.607 49.6781L27.4787 49.574C26.8701 49.5146 26.202 49.4105 26.009 49.3362C25.5637 49.1727 25.3113 48.5335 25.0292 46.8835C24.7323 45.1294 21.8969 26.0727 21.6445 24.0808L21.4515 22.52L19.4919 22.4754L17.5323 22.4308L16.7901 23.8875ZM17.8292 32.5686C18.2301 35.2889 18.5567 37.6078 18.5567 37.7118C18.5567 37.8605 17.8144 37.9051 14.9047 37.9051C12.9006 37.9051 11.2824 37.8456 11.3121 37.7862C11.4754 37.3551 16.9979 27.5294 17.0424 27.574C17.0721 27.6037 17.4284 29.8483 17.8292 32.5686Z" fill="white"/>
<path d="M133.772 31.8104C130.12 32.3158 126.497 34.8577 124.983 37.9793C124.092 39.8374 123.781 41.205 123.766 43.4793C123.736 45.6199 123.899 46.5564 124.553 47.8645C125.577 49.8861 127.477 51.0158 130.253 51.2239C132.495 51.4023 134.336 50.9266 136.77 49.5293C138.062 48.7861 138.24 48.6374 138.388 48.132C138.67 47.1956 138.418 47.1658 137.082 47.9537C135.152 49.0983 134.543 49.2766 132.495 49.2766C131.04 49.2766 130.609 49.2172 130.194 48.9942C128.145 47.9091 127.477 46.4969 127.477 43.3307C127.492 39.1834 128.828 35.5712 130.773 34.382C132.51 33.3266 135.197 33.3118 137.171 34.3226C138.092 34.7983 138.166 34.9469 138.195 36.6118L138.21 37.6226L138.685 37.578L139.146 37.5334L139.413 36.0469C139.561 35.2293 139.769 34.2037 139.888 33.7726L140.11 32.9847L139.428 32.6428C138.002 31.9293 135.568 31.5726 133.772 31.8104Z" fill="white"/>
<path d="M36.9501 36.2403C36.1187 36.5228 35.0053 37.2363 33.3724 38.5295L32.0808 39.5701L32.3035 40.0012L32.5262 40.4322L33.0012 40.0755C33.699 39.5552 34.7233 39.0647 34.9014 39.1836C35.3468 39.4512 33.7435 47.2403 32.6598 50.0795C32.2144 51.2241 32.3777 51.3579 33.8474 51.0606C34.4561 50.9417 35.1983 50.8079 35.4804 50.7633L36 50.689L36.668 47.2403L37.3361 43.7917L37.8557 43.6579C38.3604 43.5241 41.7897 43.5687 41.9233 43.7174C41.953 43.7471 41.7897 44.4755 41.5522 45.3376C40.5872 48.7268 40.4387 50.1985 40.988 50.8971C41.7303 51.8336 43.0812 51.2687 46.9559 48.3998C47.1637 48.2363 47.1785 48.1322 47.0449 47.7457C46.9559 47.4782 46.8519 47.2701 46.8074 47.2701C46.7629 47.2701 46.4808 47.4633 46.1839 47.7012C45.4713 48.2512 44.7142 48.6376 44.5361 48.5336C44.3282 48.3998 44.3579 47.4782 44.6103 46.1255C44.833 44.966 46.6738 38.2917 47.1192 37.0579C47.4458 36.1214 47.2825 36.0471 45.308 36.3741L43.675 36.6417L43.5711 37.4295C43.4672 38.262 42.5171 42.216 42.3835 42.3349C42.2796 42.439 37.8705 42.4241 37.7666 42.3201C37.722 42.2755 37.8557 41.339 38.0635 40.2539C38.5831 37.5633 38.6573 36.8201 38.4643 36.4633C38.2565 36.0471 37.722 35.9728 36.9501 36.2403Z" fill="white"/>
<path d="M54.6309 36.1067C53.8441 36.3445 52.9682 36.9094 51.2759 38.2175C50.2961 38.9756 49.4944 39.5999 49.4647 39.6296C49.435 39.6445 49.5241 39.8675 49.6429 40.1202L49.8804 40.581L50.8008 39.8377C51.3056 39.4215 51.8697 39.0945 52.0627 39.0945C52.3744 39.0945 52.4041 39.154 52.4041 39.9418C52.4041 41.0567 51.5431 45.2634 50.6969 48.2513C49.9695 50.808 49.9695 50.8229 50.1625 51.1053C50.2515 51.254 50.4148 51.2688 50.9344 51.135C51.2907 51.0459 52.0181 50.9269 52.5377 50.8675L53.5027 50.7634L53.8441 48.9945C54.4082 46.1107 55.2099 44.0891 56.6796 41.8594C57.9711 39.9121 59.5744 38.4702 60.2128 38.708C60.3612 38.7675 60.4206 39.035 60.4206 39.5702C60.4206 40.7891 59.4854 45.1296 58.5649 48.1472C57.5703 51.4323 57.5555 51.3877 59.2478 51.135C59.8565 51.0459 60.5542 50.9418 60.7917 50.8972C61.2223 50.8377 61.252 50.7932 61.4153 49.7526C61.7864 47.508 62.7959 44.6242 63.8647 42.8553C64.5031 41.7702 66.2252 39.9269 67.0268 39.4513C67.6503 39.0945 68.0511 39.0945 68.1847 39.4513C68.3035 39.7486 67.9472 41.4877 67.0268 45.2634C66.5517 47.1364 66.1509 49.0986 66.1064 49.604C66.0322 50.4364 66.0619 50.5404 66.4033 50.8972C66.6705 51.1648 66.9526 51.2837 67.294 51.2837C67.9769 51.2837 69.595 50.4513 71.035 49.3364C71.6882 48.8459 72.3563 48.3404 72.5047 48.2364C72.772 48.0432 72.772 48.0134 72.5344 47.6567L72.2969 47.2702L71.1835 48.0283C70.0553 48.8161 69.7732 48.8459 69.7732 48.2215C69.7732 47.6269 70.5006 44.0594 71.1093 41.6959C71.9109 38.5445 72.0445 37.7269 71.8515 37.0283C71.6586 36.285 71.3765 36.0621 70.6639 36.0918C68.6301 36.181 65.6165 38.5296 63.5678 41.6067C63.0631 42.3796 62.6474 42.9445 62.6474 42.8702C62.6474 42.7959 62.8849 41.8594 63.167 40.804C63.7757 38.5594 63.9538 37.0729 63.7014 36.5823C62.781 34.858 58.5946 37.5932 55.8334 41.7256C55.2544 42.5877 54.7794 43.2715 54.7794 43.2269C54.7794 43.1972 55.0169 42.1269 55.299 40.8634C55.9373 38.1283 56.0858 36.7459 55.7889 36.404C55.5365 36.0769 55.0911 35.9729 54.6309 36.1067Z" fill="white"/>
<path d="M83.1488 36.1511C82.2878 36.2998 81.5158 36.716 80.1797 37.7268C77.5966 39.6889 77.0325 40.4471 76.2457 42.9146C75.0136 46.8687 74.9393 50.3025 76.0824 51.0457C77.6115 52.0565 80.8329 49.6335 83.3566 45.6052C83.7575 44.966 84.0989 44.4754 84.1286 44.5052C84.1731 44.5349 83.9801 45.5308 83.7278 46.7052C83.1637 49.2322 83.1043 50.3025 83.4754 50.8822C84.0989 51.8484 85.6577 51.1795 89.0276 48.5038C89.3393 48.266 89.3542 48.1917 89.1909 47.6862L89.0276 47.1511L88.2705 47.716C86.8601 48.7565 86.3999 48.8308 86.3999 48.0133C86.3999 47.4484 88.1517 39.5106 88.6861 37.6971C88.983 36.6565 89.0276 36.3295 88.8791 36.2403C88.5971 36.0619 88.3892 36.0917 87.8103 36.4335L87.2758 36.7457L86.2812 36.4484C85.1232 36.0768 84.0692 35.9727 83.1488 36.1511ZM84.4849 38.1579C85.1678 38.4254 85.1975 38.5592 84.767 40.2241C84.1583 42.6173 82.3917 45.6498 80.5212 47.5227C79.3484 48.7268 78.9179 48.8754 78.6655 48.1917C78.2647 47.1511 79.6156 41.22 80.729 39.1687C81.4564 37.8308 82.7777 37.4741 84.4849 38.1579Z" fill="white"/>
<path d="M104.2 36.1809C102.374 36.6566 99.9092 38.6782 98.2614 41.0417C97.92 41.5174 97.623 41.9039 97.5934 41.889C97.5785 41.8593 97.8012 40.7593 98.0981 39.4512C98.5583 37.3255 98.6028 36.9985 98.4247 36.5823C98.2614 36.1661 98.1723 36.1215 97.6082 36.1215C96.762 36.1215 95.4408 36.8053 93.5703 38.2323C92.7835 38.8269 92.0857 39.362 92.0115 39.4066C91.8482 39.5107 92.1303 40.2836 92.3381 40.2836C92.4272 40.2836 92.7538 40.0904 93.0804 39.8526C93.3921 39.6296 93.8672 39.3471 94.1344 39.2431C94.9806 38.8863 95.0103 39.3174 94.3274 43.108C93.8078 45.9174 92.4717 51.9526 91.4919 55.7877C90.9426 57.9877 90.72 59.0877 90.8239 59.1917C90.9278 59.2958 91.2841 59.2661 91.9224 59.1026C92.4272 58.9836 93.1991 58.835 93.6148 58.7755L94.3868 58.6863L94.4907 57.6904C94.6243 56.4566 95.04 54.4647 95.7674 51.7147L95.901 51.1796L97.2074 51.2539C98.3505 51.3134 98.6177 51.2836 99.4342 50.9417C101.928 49.9458 104.393 47.9242 105.224 46.2147C106.278 44.0593 107.005 40.8039 106.842 38.9607C106.634 36.5823 105.847 35.7499 104.2 36.1809ZM103.19 39.0499C103.769 40.5661 102.522 46.1107 101.097 48.3553C100.444 49.3958 99.8944 49.6782 98.7216 49.6039C98.1872 49.5742 97.4152 49.3958 96.9995 49.2174L96.2276 48.8755L96.4354 47.9688C96.762 46.5417 97.3707 44.6093 97.8309 43.5985C98.8997 41.235 100.859 39.0499 102.255 38.6634C102.789 38.5147 103.027 38.6039 103.19 39.0499Z" fill="white"/>
<path d="M117.442 36.1365C115.927 36.3446 112.929 38.1284 111.815 39.4662C110.464 41.1162 109.217 45.65 109.47 48.0284C109.692 50.2581 111.221 51.4473 113.641 51.254C114.858 51.15 116.581 50.4067 118.555 49.0986C119.965 48.177 120.099 48.0581 120.01 47.7162C119.876 47.1216 119.757 47.1067 119.06 47.5675C117.338 48.7121 114.784 49.3513 113.864 48.8757C113.151 48.4892 112.825 47.7757 112.84 46.6162C112.854 45.2338 112.973 44.8473 113.418 44.7135C113.626 44.654 114.428 44.4311 115.2 44.223C118.748 43.2567 120.826 41.5027 121.094 39.2432C121.361 36.9838 119.95 35.7797 117.442 36.1365ZM117.56 37.8311C118.065 38.0838 118.169 38.3067 118.169 39.1838C118.169 40.0162 117.516 41.354 116.744 42.1121C116.224 42.6175 114.68 43.3905 113.656 43.6432C113.24 43.7473 113.24 43.7324 113.344 43.2419C113.983 40.2986 114.918 38.3811 115.972 37.8608C116.581 37.5486 117.026 37.5486 117.56 37.8311Z" fill="white"/>
<path d="M104.14 56.2931C100.162 58.8201 95.0993 61.6444 90.1855 64.0971C72.3711 73.016 53.369 78.8728 37.1134 80.4485C33.981 80.7458 24.9105 80.7012 22.5649 80.3742C18.2746 79.7647 15.5282 78.9769 12.5443 77.5201C9.29316 75.9147 7.17028 73.9377 5.86389 71.262C4.39419 68.2593 4.11213 64.989 4.98801 60.9012C5.16615 60.0687 4.72079 60.5147 4.17151 61.7336C3.39956 63.3985 2.71667 65.4201 2.34554 67.1593C1.87048 69.2701 1.88533 72.5404 2.36038 74.3985C4.00822 80.8201 9.38224 85.0269 18.334 86.885C22.075 87.6579 23.5596 87.7769 29.5422 87.7769C35.4804 87.7769 37.1876 87.6579 42.5319 86.8701C64.993 83.5404 91.2396 72.6593 112.082 58.0323C113.76 56.8579 115.334 55.7282 115.571 55.535L116.016 55.1633H110.969L105.922 55.1782L104.14 56.2931Z" fill="white"/>
</g>
<defs>
<clipPath id="clip0_66_74">
<rect width="144" height="88" fill="white"/>
</clipPath>
</defs>
</svg>
