<svg width="24" height="25" viewBox="0 0 24 25" fill="none" xmlns="http://www.w3.org/2000/svg">
<path d="M17 18.465C17 19.0173 17.4477 19.465 18 19.465C18.5523 19.465 19 19.0173 19 18.465C19 17.9127 18.5523 17.465 18 17.465C17.4477 17.465 17 17.9127 17 18.465Z" stroke="white" stroke-width="2" stroke-linecap="round" stroke-linejoin="round"/>
<path d="M11 18.465C11 19.0173 11.4477 19.465 12 19.465C12.5523 19.465 13 19.0173 13 18.465C13 17.9127 12.5523 17.465 12 17.465C11.4477 17.465 11 17.9127 11 18.465Z" stroke="white" stroke-width="2" stroke-linecap="round" stroke-linejoin="round"/>
<path d="M5 18.465C5 19.0173 5.44772 19.465 6 19.465C6.55228 19.465 7 19.0173 7 18.465C7 17.9127 6.55228 17.465 6 17.465C5.44772 17.465 5 17.9127 5 18.465Z" stroke="white" stroke-width="2" stroke-linecap="round" stroke-linejoin="round"/>
<path d="M17 12.465C17 13.0173 17.4477 13.465 18 13.465C18.5523 13.465 19 13.0173 19 12.465C19 11.9127 18.5523 11.465 18 11.465C17.4477 11.465 17 11.9127 17 12.465Z" stroke="white" stroke-width="2" stroke-linecap="round" stroke-linejoin="round"/>
<path d="M11 12.465C11 13.0173 11.4477 13.465 12 13.465C12.5523 13.465 13 13.0173 13 12.465C13 11.9127 12.5523 11.465 12 11.465C11.4477 11.465 11 11.9127 11 12.465Z" stroke="white" stroke-width="2" stroke-linecap="round" stroke-linejoin="round"/>
<path d="M5 12.465C5 13.0173 5.44772 13.465 6 13.465C6.55228 13.465 7 13.0173 7 12.465C7 11.9127 6.55228 11.465 6 11.465C5.44772 11.465 5 11.9127 5 12.465Z" stroke="white" stroke-width="2" stroke-linecap="round" stroke-linejoin="round"/>
<path d="M17 6.46503C17 7.01731 17.4477 7.46503 18 7.46503C18.5523 7.46503 19 7.01731 19 6.46503C19 5.91274 18.5523 5.46503 18 5.46503C17.4477 5.46503 17 5.91274 17 6.46503Z" stroke="white" stroke-width="2" stroke-linecap="round" stroke-linejoin="round"/>
<path d="M11 6.46503C11 7.01731 11.4477 7.46503 12 7.46503C12.5523 7.46503 13 7.01731 13 6.46503C13 5.91274 12.5523 5.46503 12 5.46503C11.4477 5.46503 11 5.91274 11 6.46503Z" stroke="white" stroke-width="2" stroke-linecap="round" stroke-linejoin="round"/>
<path d="M5 6.46503C5 7.01731 5.44772 7.46503 6 7.46503C6.55228 7.46503 7 7.01731 7 6.46503C7 5.91274 6.55228 5.46503 6 5.46503C5.44772 5.46503 5 5.91274 5 6.46503Z" stroke="white" stroke-width="2" stroke-linecap="round" stroke-linejoin="round"/>
</svg>
